<svg id="Layer_1" data-name="Layer 1" xmlns="http://www.w3.org/2000/svg" xmlns:xlink="http://www.w3.org/1999/xlink" viewBox="0 0 147.82 119.76"><defs><style>.cls-1{fill:none;}.cls-2{isolation:isolate;}.cls-3{clip-path:url(#clip-path);}.cls-4{fill:#a80000;}.cls-5{fill:#a30000;}.cls-6{fill:#9e0000;}.cls-7{clip-path:url(#clip-path-2);}.cls-8{fill:#850000;}.cls-9{fill:#8a0000;}.cls-10{fill:#8f0000;}.cls-11{fill:#940000;}.cls-12{fill:#900;}.cls-13{fill:#df0000;}.cls-14{clip-path:url(#clip-path-3);}.cls-15{clip-path:url(#clip-path-4);}.cls-16{clip-path:url(#clip-path-5);}.cls-17{clip-path:url(#clip-path-6);}.cls-18{clip-path:url(#clip-path-7);}.cls-19{clip-path:url(#clip-path-8);}.cls-20{clip-path:url(#clip-path-9);}.cls-21{clip-path:url(#clip-path-10);}.cls-22{clip-path:url(#clip-path-11);}.cls-23{clip-path:url(#clip-path-12);}.cls-24{clip-path:url(#clip-path-13);}</style><clipPath id="clip-path" transform="translate(-123.05 -115.56)"><path class="cls-1" d="M152.73,117.73l22.79,12.4a1.29,1.29,0,0,0-.79-.13l-22.79-12.4A1.29,1.29,0,0,1,152.73,117.73Z"/></clipPath><clipPath id="clip-path-2" transform="translate(-123.05 -115.56)"><path class="cls-1" d="M176.57,229.58l-22.79-12.4a1.18,1.18,0,0,1-.58-1.07q-1.27-48.47-2.55-96.93a1.5,1.5,0,0,1,1.3-1.57L174.73,130a1.5,1.5,0,0,0-1.3,1.57Q174.71,180,176,228.51A1.18,1.18,0,0,0,176.57,229.58Z"/></clipPath><clipPath id="clip-path-3" transform="translate(-123.05 -115.56)"><path class="cls-1" d="M204.44,186.56,227.23,199a1.33,1.33,0,0,0-.82-.15l-22.79-12.4A1.33,1.33,0,0,1,204.44,186.56Z"/></clipPath><clipPath id="clip-path-4" transform="translate(-123.05 -115.56)"><path class="cls-1" d="M191.72,218.47l-22.79-12.4a24.11,24.11,0,0,0,13,3q.85,0,1.67-.16c10-1.41,16.8-10.6,18.87-21.34a1.39,1.39,0,0,1,1.16-1.2l22.79,12.4a1.39,1.39,0,0,0-1.16,1.2c-2.07,10.74-8.85,19.93-18.87,21.34q-.82.12-1.67.16A24.11,24.11,0,0,1,191.72,218.47Z"/></clipPath><clipPath id="clip-path-5" transform="translate(-123.05 -115.56)"><path class="cls-1" d="M190.21,221.11l-22.79-12.4a41.18,41.18,0,0,1-10.88-9.15c-.6-.67-1.2-1.36-1.8-2.06l22.79,12.4c.6.7,1.2,1.39,1.8,2.06A41.18,41.18,0,0,0,190.21,221.11Z"/></clipPath><clipPath id="clip-path-6" transform="translate(-123.05 -115.56)"><path class="cls-1" d="M172.47,213.26l-22.79-12.4q1.7-2.66,3.29-5.39l22.79,12.4Q174.17,210.59,172.47,213.26Z"/></clipPath><clipPath id="clip-path-7" transform="translate(-123.05 -115.56)"><path class="cls-1" d="M154.54,231.75l-22.79-12.4a3.64,3.64,0,0,0,2.29.37c3.64-.51,8-5.33,9.49-8.57,1.69-3.73,3.9-6.76,6.15-10.29l22.79,12.4c-2.26,3.52-4.46,6.56-6.15,10.29-1.47,3.24-5.84,8.06-9.49,8.57A3.64,3.64,0,0,1,154.54,231.75Z"/></clipPath><clipPath id="clip-path-8" transform="translate(-123.05 -115.56)"><path class="cls-1" d="M189.57,115.71l22.79,12.4a1.32,1.32,0,0,0-.81-.14,1.55,1.55,0,0,0-1.27,1.18c-2.83,10.18-5.79,20.37-10,30.17-4.07,9.45-9.1,18.6-13.63,27.85-3,6.07-6,12.13-9.33,18l-22.79-12.4c3.33-5.89,6.36-11.94,9.33-18,4.53-9.25,9.56-18.41,13.63-27.85,4.23-9.8,7.19-20,10-30.17a1.55,1.55,0,0,1,1.27-1.18A1.32,1.32,0,0,1,189.57,115.71Z"/></clipPath><clipPath id="clip-path-9" transform="translate(-123.05 -115.56)"><path class="cls-1" d="M144.08,187.65l22.79,12.4c3.43,1.87,6.24,4.8,8.89,7.82L153,195.47C150.33,192.45,147.51,189.52,144.08,187.65Z"/></clipPath><clipPath id="clip-path-10" transform="translate(-123.05 -115.56)"><path class="cls-1" d="M153.29,234.76l-22.79-12.4-.28-.16c-4.78-3-6.9-12.12-7.15-18s1.45-15,6.68-19.12A10.86,10.86,0,0,1,135,183,17.92,17.92,0,0,1,145.51,185l22.79,12.4a17.92,17.92,0,0,0-10.54-2.07,10.86,10.86,0,0,0-5.22,2.13c-5.23,4.07-6.94,13.22-6.68,19.12s2.37,14.94,7.15,18Z"/></clipPath><clipPath id="clip-path-11" transform="translate(-123.05 -115.56)"><path class="cls-1" d="M245.43,117.38l22.79,12.4a1,1,0,0,0-.6-.09l-22.79-12.4A1,1,0,0,1,245.43,117.38Z"/></clipPath><clipPath id="clip-path-12" transform="translate(-123.05 -115.56)"><path class="cls-1" d="M240.11,218.23l-22.79-12.4c3.75,2,8.63,2,13.9,1.59l.54-.06c6.33-.89,10.73-8.46,12.23-14.85,1.84-7.83,1.19-16,1.32-23.83.27-16.65.21-33.21-2-49.39a1.85,1.85,0,0,1,1.5-2l22.79,12.4a1.85,1.85,0,0,0-1.5,2c2.19,16.18,2.25,32.74,2,49.39-.13,7.78.52,16-1.32,23.83-1.5,6.38-5.9,14-12.23,14.85l-.54.06C248.74,220.24,243.87,220.27,240.11,218.23Z"/></clipPath><clipPath id="clip-path-13" transform="translate(-123.05 -115.56)"><path class="cls-1" d="M238.33,221.15l-22.79-12.4a11.64,11.64,0,0,1-1.4-.89c-4.53-3.37-5.72-9.71-7-15.39a137.06,137.06,0,0,1-2.83-18.81c-1-12.83.2-26.08.33-39.09A1.56,1.56,0,0,1,206,133a1.25,1.25,0,0,1,.77.12l22.79,12.4a1.25,1.25,0,0,0-.77-.12,1.56,1.56,0,0,0-1.35,1.58c-.13,13-1.29,26.26-.33,39.09A137.06,137.06,0,0,0,230,204.87c1.23,5.69,2.43,12,7,15.39A11.64,11.64,0,0,0,238.33,221.15Z"/></clipPath></defs><title>KU</title><g class="cls-2"><g class="cls-2"><g class="cls-3"><g class="cls-2"><path class="cls-4" d="M174.73,130l-22.79-12.4a1.37,1.37,0,0,1,.53,0L175.26,130a1.37,1.37,0,0,0-.53,0" transform="translate(-123.05 -115.56)"/><path class="cls-5" d="M175.26,130l-22.79-12.4.22.08,22.79,12.4-.22-.08" transform="translate(-123.05 -115.56)"/><path class="cls-6" d="M175.49,130.11l-22.79-12.4,0,0,22.79,12.4,0,0" transform="translate(-123.05 -115.56)"/></g></g></g><g class="cls-2"><g class="cls-7"><g class="cls-2"><path class="cls-8" d="M176.57,229.58l-22.79-12.4a1.18,1.18,0,0,1-.58-1.07q-1.27-48.47-2.55-96.93a1.66,1.66,0,0,1,.1-.61L173.53,131a1.66,1.66,0,0,0-.1.61Q174.71,180,176,228.51a1.18,1.18,0,0,0,.58,1.07" transform="translate(-123.05 -115.56)"/><path class="cls-9" d="M173.53,131l-22.79-12.4a1.47,1.47,0,0,1,.08-.19l22.79,12.4a1.47,1.47,0,0,0-.08.19" transform="translate(-123.05 -115.56)"/><path class="cls-10" d="M173.62,130.77l-22.79-12.4.09-.15,22.79,12.4-.09.15" transform="translate(-123.05 -115.56)"/><path class="cls-11" d="M173.71,130.63l-22.79-12.4.1-.13,22.79,12.4-.1.13" transform="translate(-123.05 -115.56)"/><path class="cls-12" d="M173.81,130.5,151,118.1l.12-.12,22.79,12.4-.12.12" transform="translate(-123.05 -115.56)"/><path class="cls-6" d="M173.93,130.38,151.13,118l.15-.12,22.79,12.4-.15.12" transform="translate(-123.05 -115.56)"/><path class="cls-5" d="M174.08,130.26l-22.79-12.4.22-.13,22.79,12.4-.22.13" transform="translate(-123.05 -115.56)"/><path class="cls-4" d="M174.3,130.13l-22.79-12.4a1.54,1.54,0,0,1,.44-.13L174.73,130a1.54,1.54,0,0,0-.44.13" transform="translate(-123.05 -115.56)"/></g></g></g><path class="cls-13" d="M174.73,130a1.15,1.15,0,0,1,1.38,1.2q1.27,48.47,2.55,96.93a1.5,1.5,0,0,1-1.3,1.57,1.15,1.15,0,0,1-1.38-1.2q-1.27-48.47-2.55-96.93A1.5,1.5,0,0,1,174.73,130Z" transform="translate(-123.05 -115.56)"/></g><g class="cls-2"><g class="cls-2"><g class="cls-14"><g class="cls-2"><path class="cls-4" d="M226.41,198.81l-22.79-12.4a1.35,1.35,0,0,1,.52,0l22.79,12.4a1.35,1.35,0,0,0-.52,0" transform="translate(-123.05 -115.56)"/><path class="cls-5" d="M226.93,198.84l-22.79-12.4.25.09,22.79,12.4-.25-.09" transform="translate(-123.05 -115.56)"/><path class="cls-6" d="M227.18,198.93l-22.79-12.4,0,0L227.23,199l0,0" transform="translate(-123.05 -115.56)"/></g></g></g><g class="cls-2"><g class="cls-15"><g class="cls-2"><path class="cls-6" d="M191.72,218.47l-22.79-12.4,1,.52L192.73,219l-1-.52" transform="translate(-123.05 -115.56)"/><path class="cls-5" d="M192.73,219l-22.79-12.4a25.16,25.16,0,0,0,4.81,1.8l22.79,12.4a25.16,25.16,0,0,1-4.81-1.8" transform="translate(-123.05 -115.56)"/><path class="cls-4" d="M197.54,220.79l-22.79-12.4a23.51,23.51,0,0,0,7.17.72q.85,0,1.67-.16a18.44,18.44,0,0,0,5.3-1.58l22.79,12.4a18.44,18.44,0,0,1-5.3,1.58q-.82.12-1.67.16a23.51,23.51,0,0,1-7.17-.72" transform="translate(-123.05 -115.56)"/><path class="cls-5" d="M211.68,219.77l-22.79-12.4a19.35,19.35,0,0,0,2.78-1.6l22.79,12.4a19.35,19.35,0,0,1-2.78,1.6" transform="translate(-123.05 -115.56)"/><path class="cls-6" d="M214.46,218.17l-22.79-12.4a21,21,0,0,0,2.1-1.66l22.79,12.4a21,21,0,0,1-2.1,1.66" transform="translate(-123.05 -115.56)"/><path class="cls-12" d="M216.56,216.51l-22.79-12.4a23,23,0,0,0,1.85-1.87l22.79,12.4a23,23,0,0,1-1.85,1.87" transform="translate(-123.05 -115.56)"/><path class="cls-11" d="M218.41,214.63l-22.79-12.4a25.38,25.38,0,0,0,1.75-2.23l22.79,12.4a25.38,25.38,0,0,1-1.75,2.23" transform="translate(-123.05 -115.56)"/><path class="cls-10" d="M220.16,212.4,197.37,200a28.25,28.25,0,0,0,1.75-2.84l22.79,12.4a28.25,28.25,0,0,1-1.75,2.84" transform="translate(-123.05 -115.56)"/><path class="cls-9" d="M221.91,209.56l-22.79-12.4a31.72,31.72,0,0,0,1.83-4.09l22.79,12.4a31.72,31.72,0,0,1-1.83,4.09" transform="translate(-123.05 -115.56)"/><path class="cls-8" d="M223.74,205.47l-22.79-12.4a35.22,35.22,0,0,0,1.51-5.45,1.9,1.9,0,0,1,.08-.29l22.79,12.4a1.9,1.9,0,0,0-.08.29,35.22,35.22,0,0,1-1.51,5.45" transform="translate(-123.05 -115.56)"/><path class="cls-9" d="M225.33,199.72l-22.79-12.4a1.63,1.63,0,0,1,.09-.21l22.79,12.4a1.63,1.63,0,0,0-.09.21" transform="translate(-123.05 -115.56)"/><path class="cls-10" d="M225.43,199.51l-22.79-12.4.09-.15,22.79,12.4-.09.15" transform="translate(-123.05 -115.56)"/><path class="cls-11" d="M225.52,199.36,202.72,187l.1-.12,22.79,12.4-.1.12" transform="translate(-123.05 -115.56)"/><path class="cls-12" d="M225.61,199.24l-22.79-12.4.11-.11,22.79,12.4-.11.11" transform="translate(-123.05 -115.56)"/><path class="cls-6" d="M225.72,199.13l-22.79-12.4.13-.1L225.85,199l-.13.1" transform="translate(-123.05 -115.56)"/><path class="cls-5" d="M225.85,199l-22.79-12.4.18-.11L226,198.92l-.18.11" transform="translate(-123.05 -115.56)"/><path class="cls-4" d="M226,198.92l-22.79-12.4a1.31,1.31,0,0,1,.38-.11l22.79,12.4a1.31,1.31,0,0,0-.38.11" transform="translate(-123.05 -115.56)"/></g></g></g><g class="cls-2"><g class="cls-16"><g class="cls-2"><path class="cls-8" d="M190.21,221.11l-22.79-12.4a41.18,41.18,0,0,1-10.88-9.15c-.6-.67-1.2-1.36-1.8-2.06l22.79,12.4c.6.7,1.2,1.39,1.8,2.06a41.18,41.18,0,0,0,10.88,9.15" transform="translate(-123.05 -115.56)"/></g></g></g><g class="cls-2"><g class="cls-17"><g class="cls-2"><path class="cls-10" d="M172.47,213.26l-22.79-12.4q1.7-2.66,3.29-5.39l22.79,12.4q-1.6,2.72-3.29,5.39" transform="translate(-123.05 -115.56)"/></g></g></g><g class="cls-2"><g class="cls-18"><g class="cls-2"><path class="cls-6" d="M154.54,231.75l-22.79-12.4.12.06,22.79,12.4-.12-.06" transform="translate(-123.05 -115.56)"/><path class="cls-5" d="M154.66,231.81l-22.79-12.4a3.32,3.32,0,0,0,.63.24L155.3,232a3.32,3.32,0,0,1-.63-.24" transform="translate(-123.05 -115.56)"/><path class="cls-4" d="M155.3,232l-22.79-12.4a3.92,3.92,0,0,0,1.54.07,6.57,6.57,0,0,0,1.87-.59l22.79,12.4a6.57,6.57,0,0,1-1.87.59,3.92,3.92,0,0,1-1.54-.07" transform="translate(-123.05 -115.56)"/><path class="cls-5" d="M158.7,231.53l-22.79-12.4a11.15,11.15,0,0,0,1.58-.92l22.79,12.4a11.15,11.15,0,0,1-1.58.92" transform="translate(-123.05 -115.56)"/><path class="cls-6" d="M160.28,230.6l-22.79-12.4a16.29,16.29,0,0,0,1.62-1.29l22.79,12.4a16.29,16.29,0,0,1-1.62,1.29" transform="translate(-123.05 -115.56)"/><path class="cls-12" d="M161.9,229.32l-22.79-12.4a20.66,20.66,0,0,0,1.65-1.67l22.79,12.4a20.66,20.66,0,0,1-1.65,1.67" transform="translate(-123.05 -115.56)"/><path class="cls-11" d="M163.55,227.64l-22.79-12.4a21,21,0,0,0,1.44-1.82L165,225.82a21,21,0,0,1-1.44,1.82" transform="translate(-123.05 -115.56)"/><path class="cls-10" d="M165,225.82l-22.79-12.4a16.12,16.12,0,0,0,1-1.6L166,224.22a16.12,16.12,0,0,1-1,1.6" transform="translate(-123.05 -115.56)"/><path class="cls-9" d="M166,224.22l-22.79-12.4c.13-.23.24-.46.34-.68.34-.76.71-1.49,1.09-2.2l22.79,12.4c-.38.71-.75,1.44-1.09,2.2-.1.22-.21.45-.34.68" transform="translate(-123.05 -115.56)"/><path class="cls-10" d="M167.41,221.34l-22.79-12.4c1.5-2.78,3.26-5.28,5.06-8.08l22.79,12.4c-1.8,2.81-3.56,5.3-5.06,8.08" transform="translate(-123.05 -115.56)"/></g></g></g><g class="cls-2"><g class="cls-19"><g class="cls-2"><path class="cls-10" d="M177.31,205.2l-22.79-12.4q1.15-2,2.25-4.09l22.79,12.4q-1.11,2.06-2.25,4.09" transform="translate(-123.05 -115.56)"/><path class="cls-9" d="M179.56,201.11l-22.79-12.4c2.47-4.59,4.79-9.25,7.08-13.93,4.53-9.25,9.56-18.41,13.63-27.85,1.06-2.44,2-4.91,2.95-7.4l22.79,12.4c-.91,2.49-1.89,5-2.95,7.4-4.07,9.45-9.1,18.6-13.63,27.85-2.29,4.67-4.61,9.34-7.08,13.93" transform="translate(-123.05 -115.56)"/><path class="cls-8" d="M203.21,151.93l-22.79-12.4c2.75-7.48,4.95-15.13,7.07-22.77l0-.15L210.33,129l0,.15c-2.12,7.64-4.32,15.29-7.07,22.77" transform="translate(-123.05 -115.56)"/><path class="cls-9" d="M210.33,129l-22.79-12.4a1.84,1.84,0,0,1,.11-.24l22.79,12.4a1.84,1.84,0,0,0-.11.24" transform="translate(-123.05 -115.56)"/><path class="cls-10" d="M210.44,128.77l-22.79-12.4.1-.17,22.79,12.4-.1.17" transform="translate(-123.05 -115.56)"/><path class="cls-11" d="M210.55,128.6l-22.79-12.4.11-.14,22.79,12.4-.11.14" transform="translate(-123.05 -115.56)"/><path class="cls-12" d="M210.65,128.46l-22.79-12.4.12-.12,22.79,12.4-.12.12" transform="translate(-123.05 -115.56)"/><path class="cls-6" d="M210.78,128.34,188,115.94l.15-.12,22.79,12.4-.15.12" transform="translate(-123.05 -115.56)"/><path class="cls-5" d="M210.93,128.22l-22.79-12.4.21-.12,22.79,12.4-.21.12" transform="translate(-123.05 -115.56)"/><path class="cls-4" d="M211.14,128.1l-22.79-12.4a1.45,1.45,0,0,1,.42-.12,1.38,1.38,0,0,1,.53,0L212.08,128a1.38,1.38,0,0,0-.53,0,1.45,1.45,0,0,0-.42.12" transform="translate(-123.05 -115.56)"/><path class="cls-5" d="M212.08,128l-22.79-12.4.24.09,22.79,12.4-.24-.09" transform="translate(-123.05 -115.56)"/><path class="cls-6" d="M212.32,128.09l-22.79-12.4,0,0,22.79,12.4,0,0" transform="translate(-123.05 -115.56)"/></g></g></g><g class="cls-2"><g class="cls-20"><g class="cls-2"><path class="cls-8" d="M175.77,207.87,153,195.47c-2.65-3-5.46-6-8.89-7.82l22.79,12.4c3.43,1.87,6.24,4.8,8.89,7.82" transform="translate(-123.05 -115.56)"/></g></g></g><path class="cls-13" d="M226.41,198.81a1.26,1.26,0,0,1,1.42,1.6c-1.56,8.07-5.77,16.15-12.64,20.75a19.87,19.87,0,0,1-8.36,3.12A27.1,27.1,0,0,1,195,223.16c-6.43-2.06-11.19-6.18-15.67-11.2-.6-.67-1.2-1.36-1.8-2.06q-1.34,2.26-2.75,4.48c-1.19,1.86-2.53,3.64-3.69,5.52-1,1.59-1.37,3.33-2.26,4.89-2.17,3.81-7.68,9.8-12.4,10.47a4.91,4.91,0,0,1-3.41-.67c-4.78-3-6.9-12.12-7.15-18s1.45-15,6.68-19.12a10.86,10.86,0,0,1,5.22-2.13,18,18,0,0,1,11,2.34,37.63,37.63,0,0,1,8.52,7.49c3.33-5.89,6.36-11.94,9.33-18,4.53-9.25,9.56-18.41,13.63-27.85,4.23-9.8,7.19-20,10-30.17a1.55,1.55,0,0,1,1.27-1.18,1.17,1.17,0,0,1,1.31,1.59c-3.29,11.83-6.8,23.67-12.1,34.92-5.48,11.64-11.32,23.3-17.28,34.71q-2.12,4.06-4.38,8c1.06,1.22,2.12,2.44,3.19,3.62,5.85,6.4,13.27,11.14,22.42,10.66q.85,0,1.67-.16c10-1.41,16.8-10.6,18.87-21.34A1.39,1.39,0,0,1,226.41,198.81Zm-53.94,14.45q1.7-2.66,3.29-5.39c-2.93-3.34-6.06-6.57-10-8.37a14.31,14.31,0,0,0-7.67-1.21,9.65,9.65,0,0,0-3.09,1c-3.25,1.67-5.15,6.65-5.9,10.1a27.48,27.48,0,0,0,.25,12.45c.77,3.08,2.31,8,4.87,9.75a3.57,3.57,0,0,0,2.62.57c3.64-.51,8-5.33,9.49-8.57,1.69-3.73,3.9-6.76,6.15-10.29" transform="translate(-123.05 -115.56)"/><g class="cls-2"><g class="cls-21"><g class="cls-2"><path class="cls-8" d="M153.29,234.76l-22.79-12.4-.28-.16c-4.78-3-6.9-12.12-7.15-18a32,32,0,0,1,1.81-11.82l22.79,12.4a32,32,0,0,0-1.81,11.82c.25,5.87,2.37,14.94,7.15,18l.28.16" transform="translate(-123.05 -115.56)"/><path class="cls-9" d="M147.67,204.78l-22.79-12.4a21.93,21.93,0,0,1,1.25-2.82L148.93,202a21.93,21.93,0,0,0-1.25,2.82" transform="translate(-123.05 -115.56)"/><path class="cls-10" d="M148.93,202l-22.79-12.4a17.12,17.12,0,0,1,1.06-1.73L150,200.24a17.12,17.12,0,0,0-1.06,1.73" transform="translate(-123.05 -115.56)"/><path class="cls-11" d="M150,200.24l-22.79-12.4a14.17,14.17,0,0,1,1-1.25L151,199a14.17,14.17,0,0,0-1,1.25" transform="translate(-123.05 -115.56)"/><path class="cls-12" d="M151,199l-22.79-12.4a12.18,12.18,0,0,1,1-1L151.94,198a12.18,12.18,0,0,0-1,1" transform="translate(-123.05 -115.56)"/><path class="cls-6" d="M151.94,198l-22.79-12.4q.29-.26.6-.51l.44-.32L153,197.17l-.44.32q-.31.24-.6.51" transform="translate(-123.05 -115.56)"/><path class="cls-5" d="M153,197.17l-22.79-12.4a10.1,10.1,0,0,1,1.44-.83l22.79,12.4a10.1,10.1,0,0,0-1.44.83" transform="translate(-123.05 -115.56)"/><path class="cls-4" d="M154.43,196.34l-22.79-12.4a11.58,11.58,0,0,1,3.34-1,16.56,16.56,0,0,1,6.38.45l22.79,12.4a16.56,16.56,0,0,0-6.38-.45,11.58,11.58,0,0,0-3.34,1" transform="translate(-123.05 -115.56)"/><path class="cls-5" d="M164.15,195.81l-22.79-12.4a18.83,18.83,0,0,1,3.55,1.31l22.79,12.4a18.83,18.83,0,0,0-3.55-1.31" transform="translate(-123.05 -115.56)"/><path class="cls-6" d="M167.71,197.12l-22.79-12.4.6.31,22.79,12.4-.6-.31" transform="translate(-123.05 -115.56)"/></g></g></g></g><g class="cls-2"><g class="cls-2"><g class="cls-22"><g class="cls-2"><path class="cls-4" d="M267.62,129.68l-22.79-12.4a1.06,1.06,0,0,1,.41,0L268,129.7a1.06,1.06,0,0,0-.41,0" transform="translate(-123.05 -115.56)"/><path class="cls-5" d="M268,129.7l-22.79-12.4.16.06,22.79,12.4-.16-.06" transform="translate(-123.05 -115.56)"/><path class="cls-6" d="M268.19,129.76l-22.79-12.4,0,0,22.79,12.4,0,0" transform="translate(-123.05 -115.56)"/></g></g></g><g class="cls-2"><g class="cls-23"><g class="cls-2"><path class="cls-6" d="M240.11,218.23l-22.79-12.4.44.23,22.79,12.4-.44-.23" transform="translate(-123.05 -115.56)"/><path class="cls-5" d="M240.55,218.46l-22.79-12.4a13.57,13.57,0,0,0,2.6.95l22.79,12.4a13.57,13.57,0,0,1-2.6-.95" transform="translate(-123.05 -115.56)"/><path class="cls-4" d="M243.16,219.41,220.36,207c3.2.82,6.92.72,10.86.41l.54-.06a9.34,9.34,0,0,0,2.69-.81L257.24,219a9.34,9.34,0,0,1-2.69.81l-.54.06c-3.94.31-7.66.41-10.86-.41" transform="translate(-123.05 -115.56)"/><path class="cls-5" d="M257.24,219l-22.79-12.4a11.15,11.15,0,0,0,1.59-.92L258.82,218a11.15,11.15,0,0,1-1.59.92" transform="translate(-123.05 -115.56)"/><path class="cls-6" d="M258.82,218,236,205.63a13.36,13.36,0,0,0,1.34-1.06L260.16,217a13.36,13.36,0,0,1-1.34,1.06" transform="translate(-123.05 -115.56)"/><path class="cls-12" d="M260.16,217l-22.79-12.4a16.09,16.09,0,0,0,1.29-1.31l22.79,12.4a16.09,16.09,0,0,1-1.29,1.31" transform="translate(-123.05 -115.56)"/><path class="cls-11" d="M261.46,215.66l-22.79-12.4a19.49,19.49,0,0,0,1.34-1.71l22.79,12.4a19.49,19.49,0,0,1-1.34,1.71" transform="translate(-123.05 -115.56)"/><path class="cls-10" d="M262.8,213.95,240,201.55a23.57,23.57,0,0,0,1.45-2.36l22.79,12.4a23.57,23.57,0,0,1-1.45,2.36" transform="translate(-123.05 -115.56)"/><path class="cls-9" d="M264.25,211.59l-22.79-12.4a27.42,27.42,0,0,0,1.58-3.52l22.79,12.4a27.42,27.42,0,0,1-1.58,3.52" transform="translate(-123.05 -115.56)"/><path class="cls-8" d="M265.82,208.07,243,195.67a27.3,27.3,0,0,0,.95-3.15c1.84-7.83,1.19-16,1.32-23.83.27-16.65.21-33.21-2-49.39a1.71,1.71,0,0,1,.09-.82l22.79,12.4a1.71,1.71,0,0,0-.09.82c2.19,16.18,2.25,32.74,2,49.39-.13,7.78.52,16-1.32,23.83a27.3,27.3,0,0,1-.95,3.15" transform="translate(-123.05 -115.56)"/><path class="cls-9" d="M266.21,130.88l-22.79-12.4a1.8,1.8,0,0,1,.11-.23l22.79,12.4a1.8,1.8,0,0,0-.11.23" transform="translate(-123.05 -115.56)"/><path class="cls-10" d="M266.31,130.65l-22.79-12.4.12-.19,22.79,12.4-.12.19" transform="translate(-123.05 -115.56)"/><path class="cls-11" d="M266.43,130.46l-22.79-12.4.14-.17,22.79,12.4-.14.17" transform="translate(-123.05 -115.56)"/><path class="cls-12" d="M266.56,130.29l-22.79-12.4.16-.16,22.79,12.4-.16.16" transform="translate(-123.05 -115.56)"/><path class="cls-6" d="M266.72,130.13l-22.79-12.4.2-.16L266.92,130l-.2.16" transform="translate(-123.05 -115.56)"/><path class="cls-5" d="M266.92,130l-22.79-12.4.27-.15,22.79,12.4-.27.15" transform="translate(-123.05 -115.56)"/><path class="cls-4" d="M267.19,129.82l-22.79-12.4a1.52,1.52,0,0,1,.43-.13l22.79,12.4a1.52,1.52,0,0,0-.43.13" transform="translate(-123.05 -115.56)"/></g></g></g><g class="cls-2"><g class="cls-24"><g class="cls-2"><path class="cls-8" d="M238.33,221.15l-22.79-12.4a11.64,11.64,0,0,1-1.4-.89c-4.53-3.37-5.72-9.71-7-15.39a137.06,137.06,0,0,1-2.83-18.81c-1-12.83.2-26.08.33-39.09a1.7,1.7,0,0,1,.1-.58l22.79,12.4a1.7,1.7,0,0,0-.1.58c-.13,13-1.29,26.26-.33,39.09A137.06,137.06,0,0,0,230,204.87c1.23,5.69,2.43,12,7,15.39a11.64,11.64,0,0,0,1.4.89" transform="translate(-123.05 -115.56)"/><path class="cls-9" d="M227.57,146.39,204.78,134a1.54,1.54,0,0,1,.09-.2l22.79,12.4a1.54,1.54,0,0,0-.09.2" transform="translate(-123.05 -115.56)"/><path class="cls-10" d="M227.66,146.19l-22.79-12.4.09-.15L227.76,146l-.09.15" transform="translate(-123.05 -115.56)"/><path class="cls-11" d="M227.76,146,205,133.64l.11-.13,22.79,12.4-.11.13" transform="translate(-123.05 -115.56)"/><path class="cls-12" d="M227.86,145.91l-22.79-12.4.12-.13L228,145.78l-.12.13" transform="translate(-123.05 -115.56)"/><path class="cls-6" d="M228,145.78l-22.79-12.4.16-.12,22.79,12.4-.16.12" transform="translate(-123.05 -115.56)"/><path class="cls-5" d="M228.14,145.66l-22.79-12.4.23-.13,22.79,12.4-.23.13" transform="translate(-123.05 -115.56)"/><path class="cls-4" d="M228.37,145.53l-22.79-12.4A1.56,1.56,0,0,1,206,133a1.34,1.34,0,0,1,.52,0l22.79,12.4a1.34,1.34,0,0,0-.52,0,1.56,1.56,0,0,0-.45.13" transform="translate(-123.05 -115.56)"/><path class="cls-5" d="M229.34,145.42,206.54,133l.21.08,22.79,12.4-.21-.08" transform="translate(-123.05 -115.56)"/><path class="cls-6" d="M229.55,145.5l-22.79-12.4,0,0,22.79,12.4,0,0" transform="translate(-123.05 -115.56)"/></g></g></g><path class="cls-13" d="M267.62,129.68a.91.91,0,0,1,1.08.9c2.22,16.43,2.34,33.22,2.06,50.14-.19,12,1.61,27.64-8.3,37.44-3,2.94-4.76,4-7.87,4.45-.59.08-1.22.14-1.92.19-5.39.36-11.39.7-15.73-2.53-4.53-3.37-5.72-9.71-7-15.39a137.06,137.06,0,0,1-2.83-18.81c-1-12.83.2-26.08.33-39.09a1.56,1.56,0,0,1,1.35-1.58,1.1,1.1,0,0,1,1.32,1.2c-.13,13.87-1.44,28-.11,41.65a117.14,117.14,0,0,0,4,21.75c3,10.14,10.91,10.53,20,9.82l.54-.06c6.33-.89,10.73-8.46,12.23-14.85,1.84-7.83,1.19-16,1.32-23.83.27-16.65.21-33.21-2-49.39A1.85,1.85,0,0,1,267.62,129.68Z" transform="translate(-123.05 -115.56)"/></g></svg>